<svg width="311" height="275" viewBox="0 0 311 275" fill="none" xmlns="http://www.w3.org/2000/svg">
<path d="M23.1519 4.5C26.1519 6.5 27.1519 0.5 23.6519 0.5C21.1519 0.499996 19.7506 3 19.7506 5.50001C19.7506 8.00002 20.3041 26 27.3041 53.5C34.3041 81 23.5158 98.6182 23.514 104.05M23.514 104.05C37.4422 105.5 37.6262 118.79 37.4422 127.032C34.5472 159.985 4.08128 183.767 5.74909 225.77C6.00818 227.939 5.49264 246.878 16.1394 258.83C23.4021 266.774 34.76 270.283 41.5144 269.625C41.5161 269.587 41.5187 269.511 41.5205 269.473C23.774 260.483 1.87093 229.61 28.0986 174.392C39.3182 150.745 50.3642 140.868 45.2771 123.164C49.6647 123.458 55.0547 125.611 57.2726 129.903C63.8752 142.53 44.1499 157.727 41.2586 161.892C41.1467 162.151 41.4763 162.088 41.575 161.959C53.2374 152.37 55.7102 159.373 80.8957 152.271C80.404 157.343 77.8278 162.925 73.2994 166.607C66.265 172.28 57.0463 171.348 46.4885 177.742C42.1539 180.436 39.3401 183.958 38.1612 186.911C38.8749 186.671 42.046 184.844 47.5474 183.266C66.8028 177.668 86.0721 183.778 93.1264 200.623C105.992 231.937 63.2352 255.99 44.6519 232.558C38.5443 224.73 40.1414 214.507 45.4679 210.902C45.7525 210.696 46.1019 210.564 46.3031 210.263C40.9034 209.573 34.7351 219.215 38.0191 230.326C44.8126 253.679 87.0088 261.191 107.879 240.432C114.652 233.861 119.891 221.463 115.693 213.193C112.501 206.595 105.53 206.837 104.676 198.771C104.192 189.876 115.307 188.225 119.464 196.023C119.599 196.248 119.69 196.542 119.965 196.637C118.603 188.757 111.578 176.85 105.259 172.034C105.257 171.994 105.254 171.915 105.253 171.875C110.573 170.551 114.297 171.079 115.725 171.105C109.109 151.468 118.97 140.203 129.849 139.071C134.595 138.322 143.565 140.85 143.357 147.609C143.449 151.139 140.655 154.578 139.814 151.56C139.541 150.692 139.982 147.715 137.417 145.788C134.64 143.643 130 144.26 127.726 147.745C118.031 161.953 159.509 186.113 145.793 203.256C151.616 202.975 154.953 207.015 155.949 211.217C152.768 211.045 152.155 209.258 143.411 223.654C138.916 230.883 132.784 237.444 126.593 242.139C126.326 242.352 125.978 242.51 125.863 242.86C127.914 242.445 133.965 237.817 135.914 236.221C152.513 222.626 158.494 212.543 177.911 216.889C181.688 217.765 183.349 218.564 184.021 218.764C182.461 223.318 179.706 225.081 176.147 226.205C176.127 226.251 176.087 226.345 176.067 226.391C181.076 226.762 185.456 230.485 186.54 235.265M23.514 104.05C22.2211 104.026 20.969 104.394 19.7506 104.784C10.7355 107.868 13.2148 116.949 17.816 115.41C19.5804 114.834 20.298 113.153 23.019 112.723C29.2475 112.442 30.8557 120.659 31.264 126.856C32.1721 139.054 24.8692 152.417 24.1022 153.061C24.2072 152.223 24.3676 151.393 24.4465 150.553C25.3271 139.605 19.5617 133.185 10.7418 131.055C1.99793 151.868 19.3475 155.745 13.2202 169.982C13.0667 170.318 12.9453 170.681 12.6887 170.958C12.6408 170.446 13.0092 168.009 12.1311 164.831C10.5108 158.899 5.75874 155.081 3.19932 153.816C3.20879 154.224 3.26861 154.63 3.30334 155.038C3.89482 159.89 0.302931 167.007 0.508513 175.795C0.511144 180.289 2.38243 184.992 3.23054 189.497C5.00693 198.689 2.85271 206.812 2.24894 210.987C-0.78532 231.112 4.11426 251.996 13.8482 263.007C21.3337 272.025 35.6944 277.197 48.5962 272.855C50.6333 272.246 48.6383 272.786 54.6725 273.54C70.2614 275.425 79.7236 267.848 79.4977 259.02C126.045 258.684 146.126 228.765 170.006 229.629C172.266 229.823 175.828 230.614 177.608 231.864C182.668 235.108 182.95 244.144 175.56 244.576C175.094 244.61 174.626 244.55 174.162 244.601C175.219 245.183 181.636 246.905 185.531 241.353C187.152 239 186.933 237 186.54 235.265M186.54 235.265C187.152 236.5 201.152 244.533 221.652 235.267C242.152 226 303.152 233.364 307.152 231.5C311.152 229.636 309.652 226 306.652 226C303.652 226 303.652 229 306.152 229M57.6201 270.256C69.2083 272.022 74.4529 263.811 70.4004 258.147C70.2044 257.812 69.7587 257.871 69.4326 257.78C39.5973 251.834 32.2516 231.855 33.4393 222.829C33.7428 210.363 43.5703 203.12 51.8284 204.678C62.3581 206.381 64.9908 217.675 57.0435 219.269C55.9493 219.527 53.4335 219.672 52.1146 218.548C50.7566 217.31 50.718 214.787 50.8962 212.968C44.3806 215.004 42.9813 227.639 52.6158 232.317C72.4499 242.209 86.1793 217.045 77.4175 202.121C73.3729 195.056 63.0882 189.002 51.1155 189.165C7.26254 190.457 11.892 264.365 57.6201 270.256Z" stroke="white"/>
</svg>
