<svg width="32" height="430" viewBox="0 0 32 430" fill="none" xmlns="http://www.w3.org/2000/svg">
<path d="M22.4968 428.765C23.1618 418.981 17.8358 410.514 14.5178 401.679C14.1048 400.581 13.7398 399.471 13.4118 398.352C16.7958 403.769 24.3828 406.058 29.8968 408.379C30.3978 408.59 30.6328 407.891 30.3698 407.566C25.8468 401.993 19.7418 399.18 13.2238 396.62C13.1708 396.545 13.1138 396.477 13.0618 396.401C13.0118 396.328 12.9348 396.29 12.8538 396.278C12.0848 393.096 11.6738 389.841 11.6978 386.53C11.7368 381.21 13.0988 376.441 14.6078 371.458C14.9898 372.674 15.3908 373.891 15.7968 375.11C9.56679 381.772 15.6518 391.668 19.4918 397.795C19.7588 398.22 20.5268 398.199 20.6368 397.645C22.4458 388.501 18.3818 379.498 15.7768 370.921C15.5988 370.336 15.4278 369.749 15.2638 369.159C18.1948 374.394 25.0168 377.612 30.0208 380.09C30.4208 380.288 30.8768 379.881 30.6448 379.466C27.2328 373.374 21.5858 368.818 14.8098 367.021C14.7728 367.011 14.7408 367.017 14.7068 367.015C12.9108 359.673 12.4618 352.094 15.9438 345.188C16.3378 346.48 16.7748 347.762 17.2378 349.034C12.6488 356.535 19.3208 363.943 24.8948 368.584C25.2938 368.916 26.1038 368.616 25.8728 368.015C24.0468 363.252 22.0618 358.551 20.2548 353.779C19.6198 352.104 18.9588 350.416 18.3368 348.711C18.3298 348.668 18.3158 348.628 18.2938 348.59C17.7148 346.997 17.1748 345.389 16.7208 343.763C16.7318 343.744 16.7408 343.724 16.7528 343.704C16.8218 343.588 16.8258 343.481 16.7928 343.392C19.8238 348.165 25.0628 352.014 29.7608 354.473C30.1768 354.691 30.6118 354.334 30.5228 353.887C29.7538 350.042 28.4668 347.694 25.3568 345.236C22.5158 342.991 19.3368 341.326 15.9368 340.109C15.9158 340.101 15.8988 340.106 15.8778 340.101C15.8668 340.036 15.8508 339.972 15.8398 339.907C14.4588 331.77 18.0798 323.595 17.2178 315.535C17.6548 316.243 18.0718 316.965 18.4708 317.7C15.3098 324.974 19.5318 331.703 22.7748 338.245C23.0808 338.863 23.9128 338.496 23.9638 337.923C24.4338 332.647 23.6228 327.184 21.9258 322.18C21.3378 320.447 20.6038 318.828 19.7858 317.262C19.7988 317.237 19.8068 317.212 19.8198 317.187C19.8938 317.043 19.8958 316.902 19.8518 316.782C23.1178 319.566 26.8848 321.885 30.6148 323.83C30.9988 324.03 31.4418 323.701 31.3398 323.273C29.7808 316.768 23.7398 313.09 17.2278 312.849C17.2248 312.849 17.2238 312.85 17.2208 312.85C16.3478 311.461 15.4428 310.079 14.5398 308.667C13.0368 306.318 11.8238 303.815 11.6228 300.993C11.4308 298.296 11.9588 295.604 12.5088 292.977C13.2548 289.41 14.1608 285.719 13.5828 282.137C14.7778 284.193 16.0908 286.336 17.2838 288.537C12.9408 294.837 16.0558 302.368 19.0058 308.577C19.2198 309.026 19.8408 308.932 20.0778 308.577C25.4368 300.55 20.3708 291.032 16.0648 283.835C15.5188 282.922 14.9758 282.001 14.4438 281.073C18.6818 285.125 24.7598 286.964 30.5538 286.703C31.0098 286.682 31.1628 286.193 30.9018 285.863C26.7868 280.671 20.4208 278.013 13.8278 278.895C13.6138 278.924 13.4728 279.027 13.3878 279.158C11.6958 275.969 10.3278 272.637 9.9938 268.977C9.9688 268.7 9.9748 268.431 9.9608 268.157C11.2488 270.518 13.5438 272.237 15.6658 273.817C18.2488 275.74 21.0408 277.243 24.1438 278.123C24.6178 278.257 24.9458 277.742 24.7478 277.338C21.7648 271.279 16.9138 267.727 10.2878 266.275C10.1568 266.246 10.0458 266.27 9.9458 266.312C10.0908 262.613 11.1628 259.128 12.3718 255.618C14.0748 262.722 20.5048 267.16 27.2968 270.707C27.7418 270.939 28.1708 270.558 28.0938 270.095C26.9028 262.972 21.4438 257.393 14.1728 256.596C14.1018 256.588 14.0428 256.598 13.9878 256.613C12.7858 252.537 13.3948 248.064 14.7538 243.949C14.8538 243.645 14.9698 243.347 15.0768 243.045C15.2458 242.901 15.3008 242.689 15.2768 242.485C15.8378 240.971 16.4668 239.483 17.1168 238.003C18.6078 243.826 21.9078 248.721 26.5418 252.615C26.9058 252.921 27.6408 252.643 27.4328 252.096C25.2508 246.364 22.7428 240.147 18.1258 235.922C18.1018 235.9 18.0768 235.891 18.0528 235.876C19.1058 233.478 20.1208 231.067 20.8358 228.541C22.2958 223.382 21.1388 219.239 18.2568 214.83C18.2238 214.779 18.1838 214.746 18.1438 214.712C18.1838 214.678 18.2228 214.645 18.2568 214.594C21.0158 210.374 22.2818 206.307 20.9618 201.327C20.2498 198.638 19.1768 196.083 18.0588 193.543C18.0808 193.528 18.1038 193.521 18.1258 193.501C22.7428 189.276 25.2508 183.058 27.4328 177.327C27.6408 176.781 26.9048 176.503 26.5418 176.808C21.9098 180.7 18.6098 185.593 17.1178 191.413C16.4658 189.935 15.8378 188.447 15.2768 186.935C15.2998 186.732 15.2448 186.522 15.0768 186.378C14.9698 186.076 14.8528 185.778 14.7528 185.474C13.4058 181.397 12.7548 176.889 13.9608 172.807C14.0208 172.828 14.0908 172.836 14.1718 172.827C21.4428 172.03 26.9018 166.451 28.0928 159.328C28.1708 158.863 27.7398 158.484 27.2958 158.716C20.5038 162.263 14.0708 166.702 12.3698 173.808C11.1558 170.302 10.0558 166.812 9.9218 163.101C10.0258 163.151 10.1448 163.179 10.2868 163.148C16.9118 161.696 21.7638 158.145 24.7468 152.085C24.9458 151.682 24.6168 151.166 24.1438 151.3C21.0408 152.18 18.2498 153.683 15.6658 155.606C13.5338 157.193 11.2288 158.92 9.94481 161.296C9.95181 161.159 9.94381 161.026 9.95481 160.888C10.2378 157.059 11.6378 153.594 13.3898 150.276C13.4748 150.402 13.6158 150.5 13.8278 150.528C20.4188 151.41 26.7868 148.752 30.9018 143.56C31.1638 143.229 31.0078 142.741 30.5538 142.72C24.7628 142.459 18.6898 144.295 14.4518 148.343C14.9798 147.419 15.5198 146.5 16.0648 145.588C20.3708 138.391 25.4368 128.874 20.0778 120.846C19.8408 120.491 19.2198 120.397 19.0058 120.846C16.0548 127.057 12.9398 134.584 17.2838 140.886C16.0898 143.087 14.7768 145.231 13.5818 147.288C14.1378 143.836 13.3148 140.285 12.5918 136.839C12.0408 134.21 11.4598 131.518 11.6068 128.816C11.7688 125.829 12.9478 123.246 14.5408 120.756C15.4438 119.344 16.3518 117.963 17.2278 116.574L17.2288 116.574C23.7398 116.333 29.7818 112.656 31.3408 106.149C31.4438 105.72 30.9998 105.391 30.6158 105.592C26.8858 107.537 23.1188 109.856 19.8528 112.64C19.8968 112.52 19.8948 112.38 19.8208 112.235C19.8088 112.213 19.8018 112.189 19.7908 112.167C20.5428 110.727 21.2248 109.24 21.7818 107.656C23.5818 102.534 24.4488 96.9213 23.9658 91.4993C23.9148 90.9263 23.0828 90.5583 22.7768 91.1773C19.5368 97.7123 15.3198 104.434 18.4618 111.699C18.0678 112.42 17.6518 113.126 17.2238 113.822C18.0598 105.783 14.4638 97.6313 15.8408 89.5153C15.8518 89.4503 15.8678 89.3863 15.8788 89.3213C15.8988 89.3163 15.9158 89.3203 15.9378 89.3133C19.3348 88.0983 22.5218 86.4333 25.3578 84.1863C28.4618 81.7273 29.7538 79.3893 30.5238 75.5353C30.6128 75.0883 30.1768 74.7333 29.7618 74.9493C25.0648 77.4083 19.8268 81.2553 16.7958 86.0273C16.8278 85.9383 16.8228 85.8323 16.7538 85.7183C16.7428 85.6993 16.7338 85.6793 16.7218 85.6603C17.1758 84.0343 17.7148 82.4263 18.2938 80.8333C18.3158 80.7953 18.3308 80.7553 18.3378 80.7113C18.9598 79.0063 19.6208 77.3193 20.2548 75.6433C22.0618 70.8723 24.0458 66.1703 25.8728 61.4073C26.1028 60.8063 25.2938 60.5063 24.8948 60.8383C19.3208 65.4793 12.6488 72.8863 17.2378 80.3883C16.7748 81.6603 16.3378 82.9423 15.9438 84.2343C12.4608 77.3273 12.9098 69.7503 14.7068 62.4073C14.7418 62.4043 14.7728 62.4113 14.8098 62.4013C21.5858 60.6043 27.2328 56.0493 30.6448 49.9563C30.8768 49.5423 30.4218 49.1343 30.0208 49.3323C25.0138 51.8113 18.1948 55.0263 15.2638 60.2633C15.4288 59.6743 15.5998 59.0863 15.7768 58.5013C18.3828 49.9223 22.4458 40.9233 20.6368 31.7773C20.5268 31.2233 19.7598 31.2003 19.4918 31.6273C15.6518 37.7553 9.56581 47.6503 15.7968 54.3123C15.3898 55.5313 14.9898 56.7493 14.6068 57.9653C13.1398 53.1263 11.8028 48.4993 11.7048 43.3343C11.6398 39.8743 12.0538 36.4713 12.8568 33.1453C12.9358 33.1323 13.0108 33.0943 13.0608 33.0223C13.1128 32.9463 13.1698 32.8773 13.2228 32.8033C19.7398 30.2443 25.8468 27.4303 30.3688 21.8573C30.6328 21.5323 30.3978 20.8333 29.8958 21.0443C24.3798 23.3663 16.8018 25.6483 13.4158 31.0633C13.7428 29.9473 14.1058 28.8393 14.5178 27.7443C17.8358 18.9093 23.1618 10.4423 22.4968 0.658259C22.4638 0.172259 21.7738 -0.27374 21.4028 0.20526C16.0308 7.12826 10.4218 15.3163 14.4598 24.3093C13.6508 26.2453 12.8918 28.1913 12.2728 30.1693C11.7878 31.7193 11.3928 33.3493 11.0828 35.0223C9.9438 29.5153 7.35281 23.9703 4.11381 19.8253C3.84781 19.4853 3.25081 19.7723 3.26981 20.1753C3.48481 24.6103 3.9298 28.8533 5.3868 33.0833C6.4068 36.0473 7.6908 39.3003 10.3868 41.0913C10.1158 47.3883 11.2388 53.8353 14.2688 59.0513C13.8958 60.2853 13.5498 61.5183 13.2518 62.7513C12.8698 64.3333 12.5558 65.9703 12.3308 67.6273C10.9528 62.5713 7.9198 57.6123 4.5768 54.2923C4.3128 54.0303 3.72781 54.2023 3.77581 54.6243C4.56081 61.5753 5.3318 69.8623 12.0078 73.8083C12.1708 77.9383 13.1958 81.9603 15.5978 85.4083C15.2478 86.6633 14.9458 87.9283 14.7238 89.2073C14.6688 89.5243 14.6368 89.8413 14.5948 90.1573C13.4138 84.8383 10.9588 79.8633 6.21081 76.7703C5.80281 76.5043 5.33681 76.9423 5.43281 77.3683C6.84581 83.6703 8.51281 90.0063 14.1708 93.7963C14.2128 93.8243 14.2538 93.8313 14.2958 93.8463C14.3168 93.9623 14.3388 94.0783 14.3598 94.1953C14.4008 97.8103 15.0088 101.407 15.5088 105.011C13.7568 101.267 10.7218 97.9763 7.71781 95.3263C7.40381 95.0493 6.85181 95.2243 6.85981 95.6813C6.92081 99.2363 8.08381 103.095 9.73681 106.242C10.4578 107.615 11.3738 108.86 12.5918 109.833C13.7728 110.776 15.1098 111.386 16.1428 112.484C16.1468 113.587 16.0958 114.693 15.9708 115.801C14.6398 117.857 13.2728 119.896 12.1098 122.106C11.0198 124.178 10.5548 126.244 10.4538 128.309C8.8068 124.343 6.0788 120.7 3.1348 117.783C2.7918 117.443 2.21581 117.788 2.33381 118.249C3.77181 123.859 5.35381 129.671 10.5848 132.895C10.6378 132.928 10.6898 132.938 10.7418 132.952C11.5718 138.496 13.6818 144.06 12.2038 149.74C12.0968 149.941 11.9888 150.141 11.8868 150.34C11.6468 150.804 11.4188 151.273 11.2008 151.746C11.5008 146.163 8.42981 140.49 4.10381 137.141C3.71481 136.84 3.19081 137.11 3.28281 137.619C4.40681 143.787 5.7798 150.211 9.8638 155.157C9.0508 157.68 8.6068 160.302 8.7068 163.013C8.7638 164.559 9.0008 166.077 9.3438 167.573C7.1688 164.54 4.0068 162.186 0.686801 160.444C0.378801 160.282 -0.128197 160.561 0.0298029 160.949C2.0048 165.806 5.57181 170.256 10.5008 172.334C10.6118 172.381 10.7118 172.372 10.8028 172.342C11.1978 173.4 11.6238 174.446 12.0688 175.48C11.9038 176.783 11.8758 178.162 12.0378 179.644C12.1098 180.297 12.2088 180.941 12.3288 181.579C9.6698 178.683 5.60081 176.829 2.05681 175.753C1.62981 175.623 1.3078 176.11 1.5018 176.475C4.2058 181.577 8.51781 185.373 13.9658 187.265C14.8728 189.707 15.9668 192.091 17.0088 194.487C18.2688 197.384 19.5958 200.419 20.1158 203.558C20.7708 207.511 19.0758 210.662 17.3898 214.084C17.2628 214.342 17.3558 214.574 17.5238 214.709C17.3548 214.844 17.2618 215.076 17.3898 215.334C18.9268 218.455 20.5728 221.391 20.2088 224.992C19.8748 228.291 18.4998 231.491 17.1948 234.507C16.0978 237.044 14.9308 239.566 13.9698 242.152C8.5208 244.043 4.20781 247.84 1.50281 252.943C1.30981 253.308 1.6308 253.795 2.0578 253.665C5.6028 252.588 9.6728 250.734 12.3318 247.837C12.2108 248.475 12.1098 249.12 12.0388 249.773C11.8768 251.254 11.9048 252.632 12.0698 253.935C11.6248 254.968 11.1978 256.014 10.8008 257.073C10.7108 257.044 10.6128 257.036 10.5018 257.083C5.5738 259.161 2.00681 263.611 0.0308053 268.468C-0.127195 268.857 0.377803 269.136 0.687803 268.973C4.0018 267.233 7.1588 264.885 9.3338 261.86C9.0228 263.217 8.79881 264.591 8.72281 265.988C8.56781 268.844 9.0098 271.606 9.8638 274.261C5.7808 279.207 4.4068 285.632 3.2828 291.798C3.1908 292.306 3.7138 292.578 4.1038 292.276C8.4318 288.926 11.5028 283.252 11.2008 277.668C11.4198 278.141 11.6468 278.612 11.8868 279.077C11.9898 279.275 12.0968 279.476 12.2038 279.676C13.6818 285.356 11.5718 290.921 10.7418 296.465C10.6898 296.479 10.6378 296.489 10.5848 296.522C5.3548 299.746 3.7708 305.56 2.3338 311.168C2.2158 311.629 2.79079 311.975 3.13479 311.634C6.07779 308.718 8.80679 305.074 10.4538 301.108C10.5538 303.173 11.0198 305.24 12.1098 307.311C13.2628 309.502 14.6318 311.523 15.9628 313.564C16.0928 314.69 16.1458 315.814 16.1428 316.936C15.1938 317.943 14.0028 318.517 12.8878 319.352C11.5318 320.366 10.5208 321.684 9.7378 323.175C8.0838 326.325 6.92179 330.182 6.86079 333.736C6.85279 334.195 7.4048 334.369 7.7198 334.092C10.7248 331.441 13.7588 328.152 15.5098 324.409C15.0108 328.012 14.4018 331.609 14.3608 335.223C14.3408 335.34 14.3178 335.456 14.2968 335.572C14.2548 335.587 14.2138 335.594 14.1718 335.622C8.51479 339.411 6.8468 345.751 5.4338 352.05C5.3388 352.475 5.8038 352.914 6.2118 352.648C10.9598 349.555 13.4148 344.579 14.5958 339.26C14.6378 339.577 14.6698 339.894 14.7248 340.211C14.9468 341.49 15.2488 342.755 15.5988 344.01C13.1968 347.458 12.1718 351.48 12.0088 355.61C5.3348 359.555 4.56179 367.845 3.77679 374.793C3.72879 375.214 4.3118 375.389 4.5778 375.125C7.9218 371.804 10.9538 366.846 12.3318 361.791C12.5558 363.448 12.8708 365.084 13.2528 366.666C13.5498 367.899 13.8968 369.132 14.2698 370.366C11.2398 375.582 10.1178 382.03 10.3878 388.326C7.69179 390.117 6.40779 393.369 5.38779 396.334C3.93179 400.564 3.48579 404.808 3.27079 409.242C3.25179 409.641 3.8478 409.933 4.1148 409.592C7.3538 405.448 9.94379 399.903 11.0838 394.395C11.3938 396.068 11.7898 397.698 12.2738 399.248C12.8918 401.226 13.6518 403.172 14.4608 405.107C10.4238 414.098 16.0328 422.289 21.4038 429.211C21.7748 429.697 22.4638 429.254 22.4968 428.765ZM19.1388 354.088C20.6928 358.214 22.2888 362.333 23.9668 366.412C19.1068 362.423 14.5548 356.219 17.6318 350.105C18.1298 351.44 18.6418 352.768 19.1388 354.088ZM19.5818 306.952C16.9328 301.518 14.4598 295.126 17.8458 289.604C20.7548 295.224 22.6358 301.174 19.5818 306.952ZM19.5818 122.478C22.6358 128.255 20.7548 134.205 17.8448 139.826C14.4588 134.302 16.9318 127.913 19.5818 122.478ZM23.9668 63.0183C22.2888 67.0973 20.6918 71.2163 19.1388 75.3423C18.6418 76.6623 18.1308 77.9893 17.6318 79.3253C14.5548 73.2113 19.1068 67.0063 23.9668 63.0183ZM21.2388 2.25126C21.1738 9.60826 17.9188 16.2363 15.0388 22.9443C12.3388 15.5593 16.2068 7.81126 21.2388 2.25126ZM28.5318 22.7123C24.9388 27.0933 19.4478 29.5193 14.2038 31.5473C17.9518 27.1163 23.2618 25.0163 28.5318 22.7123ZM5.69581 31.1433C4.80481 28.1743 4.24281 25.0303 4.21981 21.9113C5.88681 24.7093 7.43582 27.4853 8.54582 30.6103C9.48581 33.2573 10.0308 35.9453 10.5668 38.6653C10.5238 39.0933 10.4888 39.5213 10.4588 39.9523C7.86981 37.8013 6.63681 34.2793 5.69581 31.1433ZM21.9918 55.0173C24.2038 53.4773 26.5648 52.1803 28.9478 50.9283C25.7898 55.7063 21.2048 59.1363 15.7768 60.9793C17.6868 58.7813 19.4998 56.7523 21.9918 55.0173ZM19.6198 33.5853C20.3558 40.2573 18.3298 46.7193 16.1998 53.1083C12.2158 46.5603 15.4878 39.4643 19.6198 33.5853ZM4.82481 56.0863C6.85981 58.6513 8.62881 61.3133 9.92181 64.3713C10.9628 66.8353 11.4588 69.3353 11.9848 71.8773C11.9798 72.1293 11.9838 72.3813 11.9848 72.6323C6.75081 68.7443 5.35481 62.3333 4.82481 56.0863ZM29.3688 76.3943C28.3658 82.2443 22.3928 85.8633 17.0298 87.8843C18.5618 85.9223 19.9958 83.9003 21.8058 82.1333C24.0938 79.9003 26.6228 78.0043 29.3688 76.3943ZM16.7278 86.1433C16.6428 86.2793 16.5658 86.4183 16.4848 86.5563C16.5108 86.4533 16.5348 86.3503 16.5618 86.2473C16.6248 86.2243 16.6838 86.1913 16.7278 86.1433ZM6.73981 78.4833C11.0528 81.9683 12.9208 87.0613 14.0088 92.3703C9.43781 89.2733 7.83981 83.7093 6.73981 78.4833ZM11.1908 106.708C9.4418 104 8.2268 100.221 7.9348 96.8923C12.1098 100.812 15.1528 105.214 16.0058 110.791C14.4738 109.409 12.3898 108.565 11.1908 106.708ZM17.8578 115.558C17.8968 115.495 17.9338 115.432 17.9728 115.369C22.0118 112.387 25.9518 109.449 30.3068 106.932C29.6478 112.22 22.5868 115.052 17.8578 115.558ZM19.4748 112.979C19.3988 113.045 19.3248 113.113 19.2498 113.18C19.2838 113.118 19.3208 113.057 19.3548 112.995C19.3948 112.994 19.4338 112.991 19.4748 112.979ZM22.6958 93.6373C22.6308 98.5903 21.9298 103.428 20.1378 108.115C19.8268 108.928 19.4678 109.705 19.0908 110.468C17.2168 104.839 19.6048 98.6243 22.6958 93.6373ZM3.6908 119.812C6.7778 123.34 8.7468 127.201 10.5548 131.518C10.5558 131.531 10.5568 131.544 10.5578 131.557C6.5208 128.929 4.8338 124.354 3.6908 119.812ZM14.4278 149.489C18.9298 146.095 23.8308 143.947 29.4868 143.749C25.7808 148.037 20.0538 150.191 14.4278 149.489ZM10.0838 153.713C6.8378 149.321 5.5738 144.102 4.5148 138.808C8.7168 142.758 10.1998 147.977 10.0838 153.713ZM23.4588 152.666C21.5418 157.964 15.6988 160.69 10.5288 161.93C13.5538 157.783 18.6038 154.431 23.4588 152.666ZM1.45281 161.93C5.19681 164.195 8.40681 167.128 10.3128 171.022C6.44081 168.802 3.39781 165.934 1.45281 161.93ZM26.8758 160.182C25.7668 166.231 20.3458 171.016 14.3018 171.795C14.6788 170.805 15.1748 169.844 15.8088 168.928C18.5248 165.003 22.7398 162.44 26.8758 160.182ZM25.5738 178.963C23.4788 183.756 21.2728 188.268 17.9538 192.408C19.0478 187.261 21.6288 182.457 25.5738 178.963ZM3.09781 177.213C7.31581 178.911 10.7288 181.008 13.1168 184.727C13.2168 185.059 13.3158 185.392 13.4258 185.722C9.0678 184.002 5.60381 181.186 3.09781 177.213ZM17.9538 237.021C21.2728 241.161 23.4778 245.672 25.5738 250.466C21.6298 246.972 19.0478 242.168 17.9538 237.021ZM3.09781 252.216C5.60281 248.245 9.06681 245.429 13.4208 243.709C13.3128 244.037 13.2178 244.369 13.1188 244.7C10.7308 248.419 7.31781 250.517 3.09781 252.216ZM26.8768 269.248C22.8568 267.058 18.7098 264.571 16.0188 260.808C15.2958 259.797 14.7448 258.734 14.3298 257.638C20.3648 258.428 25.7698 263.206 26.8768 269.248ZM1.4528 267.499C3.3978 263.494 6.4438 260.626 10.3128 258.407C8.4058 262.3 5.1958 265.234 1.4528 267.499ZM23.4588 276.764C18.6048 274.999 13.5528 271.645 10.5288 267.501C15.6958 268.74 21.5418 271.466 23.4588 276.764ZM4.51379 290.621C5.57379 285.327 6.83679 280.109 10.0828 275.716C10.1998 281.452 8.71379 286.673 4.51379 290.621ZM29.4868 285.681C23.8318 285.483 18.9298 283.335 14.4278 279.941C20.0528 279.238 25.7808 281.393 29.4868 285.681ZM10.5588 297.873C10.5578 297.886 10.5568 297.899 10.5558 297.912C8.7478 302.229 6.77679 306.091 3.69079 309.618C4.83379 305.072 6.5178 300.502 10.5588 297.873ZM19.9828 320.904C21.8648 325.723 22.6218 330.686 22.6938 335.79C19.5948 330.79 17.2038 324.562 19.1038 318.922C19.4188 319.566 19.7168 320.223 19.9828 320.904ZM19.3408 316.434C19.3028 316.365 19.2638 316.297 19.2258 316.228C19.3088 316.302 19.3908 316.377 19.4748 316.45C19.4298 316.437 19.3858 316.434 19.3408 316.434ZM30.3058 322.497C25.9468 319.977 22.0028 317.035 17.9598 314.051C17.9238 313.991 17.8878 313.93 17.8508 313.87C22.5708 314.375 29.6458 317.208 30.3058 322.497ZM16.5608 343.182C16.5338 343.079 16.5108 342.976 16.4838 342.873C16.5658 343.011 16.6418 343.15 16.7268 343.286C16.6838 343.238 16.6248 343.205 16.5608 343.182ZM29.3688 353.035C26.6228 351.425 24.0928 349.528 21.8058 347.295C19.9968 345.529 18.5618 343.507 17.0298 341.544C22.3928 343.567 28.3658 347.185 29.3688 353.035ZM7.93479 332.539C8.22579 329.196 9.43879 325.448 11.1908 322.722C12.3888 320.858 14.4728 320.019 16.0058 318.638C15.1538 324.216 12.1108 328.617 7.93479 332.539ZM6.74079 350.946C7.83979 345.719 9.4378 340.156 14.0108 337.059C12.9218 342.369 11.0558 347.46 6.74079 350.946ZM9.92179 365.059C8.62979 368.116 6.85979 370.779 4.82479 373.344C5.35479 367.094 6.74779 360.686 11.9838 356.797C11.9838 357.049 11.9788 357.3 11.9848 357.553C11.4588 360.094 10.9638 362.592 9.92179 365.059ZM19.6198 395.844C15.4878 389.965 12.2138 382.871 16.1998 376.321C18.3288 382.71 20.3548 389.172 19.6198 395.844ZM28.9478 378.501C26.5648 377.249 24.2048 375.953 21.9918 374.412C19.5068 372.682 17.6858 370.646 15.7768 368.45C21.2048 370.293 25.7898 373.723 28.9478 378.501ZM28.5328 406.717C23.2598 404.412 17.9528 402.315 14.2048 397.882C19.4478 399.91 24.9398 402.337 28.5328 406.717ZM8.54679 398.819C7.43779 401.942 5.88679 404.72 4.22079 407.518C4.24379 404.399 4.8068 401.255 5.6968 398.286C6.6378 395.148 7.8718 391.627 10.4598 389.477C10.4898 389.908 10.5248 390.336 10.5678 390.764C10.0318 393.484 9.48679 396.171 8.54679 398.819ZM15.0388 406.486C17.9188 413.193 21.1738 419.822 21.2388 427.179C16.2058 421.617 12.3368 413.873 15.0388 406.486Z" fill="white"/>
</svg>
