<svg width="33" height="450" viewBox="0 0 33 450" fill="none" xmlns="http://www.w3.org/2000/svg">
<path d="M17.2369 448.675C19.2699 435.296 19.6149 421.931 17.2959 408.555C16.1279 401.82 14.1149 395.17 13.8159 388.308C13.5729 382.72 14.8189 377.722 16.7889 372.779C16.7769 373.068 16.7609 373.356 16.7519 373.646C16.3909 385.335 21.1919 396.293 25.9959 406.689C26.3149 407.379 27.4979 407.046 27.4389 406.298C26.4259 393.436 24.1499 380.389 19.2619 368.39C19.1829 368.195 19.0439 368.068 18.8849 367.999C18.9899 367.741 18.7629 367.556 18.5499 367.622C18.8539 362.924 19.0999 358.278 18.7339 353.526C18.3019 347.925 17.6169 342.132 16.2729 336.645C16.5689 335.005 16.8219 333.388 17.0249 331.785C18.4779 343.837 25.1869 355.243 31.0789 365.494C31.4529 366.144 32.4539 365.706 32.2749 364.99C30.4699 357.757 28.3209 350.606 25.7349 343.613C23.8819 338.602 22.1329 333.078 17.9589 329.527C17.7819 328.088 17.6529 326.638 17.5659 325.175C17.6459 322.631 17.5739 320.058 17.3189 317.394C16.9999 314.063 16.6759 310.732 16.3389 307.402C19.3519 317.732 24.5869 327.274 29.7819 336.678C30.0749 337.209 30.9489 336.977 30.9309 336.367C30.4919 320.977 25.1849 306.016 15.5449 293.981C15.4279 293.835 15.2929 293.778 15.1589 293.77C14.4389 284.585 15.2279 275.237 13.9839 266.134C17.7719 275.386 24.1489 283.754 31.2379 290.625C31.6609 291.035 32.3969 290.626 32.2349 290.045C30.5119 283.865 28.3109 277.82 25.1269 272.228C22.2549 267.183 17.9629 263.901 13.2129 260.734C13.8029 256.655 14.5139 252.599 15.3029 248.522C16.2869 243.44 17.0879 238.375 17.0569 233.243C17.2009 233.838 17.3349 234.435 17.4399 235.036C18.0969 238.783 18.9849 242.462 20.2239 246.062C22.6499 253.11 26.2299 259.669 30.7809 265.567C31.2359 266.156 32.2309 265.849 32.0389 265.037C29.1649 252.871 26.6759 240.204 17.8699 230.738C17.8639 230.731 17.8569 230.73 17.8509 230.724C17.7219 230.264 17.5789 229.807 17.4129 229.353C16.8189 227.735 16.1279 226.212 15.7029 224.558C16.1789 222.538 16.9189 220.606 17.5799 218.638C17.6809 218.609 17.7799 218.559 17.8709 218.462C26.6769 208.996 29.165 196.328 32.04 184.163C32.231 183.357 31.2409 183.039 30.7819 183.633C26.2309 189.531 22.6509 196.089 20.2249 203.138C18.9859 206.738 18.0979 210.417 17.4409 214.164C17.3359 214.765 17.2009 215.362 17.0569 215.958C17.0879 210.826 16.2869 205.761 15.3039 200.679C14.5149 196.602 13.8039 192.545 13.2139 188.467C17.9669 185.298 22.2459 182.016 25.1279 176.974C28.3189 171.39 30.5139 165.333 32.2359 159.157C32.3979 158.576 31.6629 158.166 31.2389 158.577C24.1499 165.448 17.7729 173.816 13.9849 183.069C15.2279 173.966 14.4389 164.618 15.1599 155.433C15.2939 155.425 15.4289 155.367 15.5459 155.222C25.1859 143.187 30.493 128.227 30.932 112.836C30.949 112.227 30.0759 111.993 29.7829 112.525C24.5849 121.934 19.3479 131.482 16.3349 141.819C16.6559 138.65 16.9649 135.479 17.2729 132.309C17.5409 129.547 17.6239 126.885 17.5529 124.252C17.6389 122.712 17.775 121.188 17.962 119.675C22.136 116.124 23.883 110.599 25.738 105.589C28.327 98.5975 30.4729 91.4435 32.2779 84.2115C32.4549 83.5015 31.4589 83.0515 31.0819 83.7075C25.1839 93.9695 18.4679 105.388 17.0239 117.453C16.8239 115.841 16.5719 114.213 16.2749 112.562C17.5779 107.24 18.2519 101.63 18.6969 96.1995C19.1009 91.2675 18.8599 86.4535 18.5509 81.5795C18.7639 81.6485 18.995 81.4645 18.889 81.2045C19.048 81.1355 19.1859 81.0085 19.2659 80.8125C24.1539 68.8145 26.4299 55.7665 27.4429 42.9055C27.5019 42.1585 26.3189 41.8245 25.9999 42.5145C21.1959 52.9105 16.3939 63.8685 16.7559 75.5575C16.7649 75.8535 16.782 76.1465 16.794 76.4415C14.875 71.6505 13.6279 66.7985 13.8029 61.3855C14.0309 54.3535 16.0989 47.5425 17.2989 40.6485C19.6269 27.2765 19.2719 13.9025 17.2399 0.528521C17.1289 -0.199479 15.964 -0.152479 15.815 0.528521C13.882 9.38552 11.78 18.2255 10.048 27.1245C8.48695 35.1475 10.241 42.2335 14.169 49.3225C14.182 49.3455 14.2019 49.3575 14.2169 49.3775C12.3409 59.5185 11.3709 70.3575 16.9499 79.3785C17.2669 84.2855 17.7699 89.1445 17.4909 94.1085C17.2069 99.1695 16.2979 104.155 15.6659 109.168C13.1049 95.1195 11.5619 80.9075 11.0419 66.6365C11.0169 65.9565 10.1239 65.6995 9.76194 66.2895C1.23994 80.1585 6.08093 96.5425 13.9029 109.477C14.0239 109.678 14.204 109.75 14.384 109.75C14.386 109.76 14.388 109.771 14.389 109.781C15.087 113.59 15.9299 117.386 16.2709 121.249C16.5029 123.883 16.4139 126.509 16.2219 129.135C15.5499 126.217 14.5929 123.32 13.6799 120.488C11.7239 114.42 9.19093 108.59 5.08393 103.653C4.80093 103.312 4.17193 103.587 4.19993 104.019C4.59593 110.124 5.88093 116.298 7.55293 122.179C9.03193 127.379 11.3009 132.32 15.3029 136.056C15.3359 136.087 15.3719 136.099 15.4069 136.12C15.2189 137.542 15.0619 138.959 15.2229 140.399C14.9129 143.87 14.6189 147.342 14.3549 150.816C12.6929 161.914 13.5409 173.308 12.6769 184.511C12.4699 182.788 12.2889 181.058 12.1459 179.316C10.9459 164.701 9.94794 150.064 8.93394 135.435C8.88494 134.724 7.84695 134.514 7.64695 135.261C5.59595 142.916 4.63793 150.846 4.98493 158.771C5.21193 163.975 5.74892 170.065 10.3979 173.223C10.5519 175.254 10.7019 177.286 10.8639 179.316C11.3949 185.982 12.441 192.488 13.764 199.039C14.335 201.867 14.8839 204.71 15.3049 207.566C15.1509 207.212 14.9899 206.857 14.8249 206.496C13.5469 203.698 12.1459 200.951 10.6719 198.252C7.80094 192.995 4.50093 187.976 1.08793 183.059C0.767927 182.598 0.0459222 182.759 0.0229221 183.347C-0.452078 195.629 6.54893 204.577 15.1279 212.528C15.3699 212.753 15.6559 212.76 15.8879 212.653C16.0779 215.127 16.1109 217.611 15.9209 220.105C15.5999 221.234 15.3019 222.366 15.0749 223.505C14.9049 223.535 14.755 223.657 14.777 223.857C14.804 224.107 14.8489 224.355 14.8859 224.604C14.8489 224.853 14.804 225.101 14.777 225.35C14.755 225.548 14.9049 225.671 15.0739 225.702C15.3009 226.842 15.5989 227.974 15.9209 229.104C16.1109 231.598 16.0779 234.081 15.8879 236.555C15.6549 236.447 15.3699 236.455 15.1279 236.68C6.54893 244.631 -0.453081 253.578 0.0229185 265.861C0.0459185 266.449 0.767923 266.611 1.08792 266.149C4.50092 261.232 7.80194 256.213 10.6719 250.956C12.0689 248.399 13.3929 245.797 14.6209 243.153C14.8519 242.655 15.0859 242.165 15.3009 241.674C14.8799 244.519 14.3329 247.351 13.7649 250.169C12.4419 256.721 11.3959 263.225 10.8649 269.892C10.7029 271.923 10.5539 273.954 10.3989 275.985C5.75393 279.14 5.20693 285.234 4.98593 290.437C4.64993 298.366 5.59592 306.288 7.64792 313.947C7.84692 314.688 8.88494 314.49 8.93494 313.773C9.94794 299.144 10.9459 284.508 12.1469 269.892C12.2899 268.15 12.4709 266.42 12.6779 264.697C13.5419 275.898 12.6949 287.292 14.3559 298.388C14.6199 301.863 14.9149 305.337 15.2249 308.809C15.0729 310.236 15.2599 311.643 15.4649 313.055C15.4109 313.08 15.3559 313.106 15.3049 313.153C11.3029 316.889 9.03393 321.83 7.55493 327.03C5.88193 332.911 4.59793 339.085 4.20193 345.19C4.17393 345.62 4.80194 345.898 5.08594 345.556C9.19294 340.619 11.7249 334.788 13.6819 328.721C14.5919 325.897 15.5439 323.011 16.2159 320.104C16.4039 322.719 16.4969 325.333 16.2729 327.96C15.9439 331.823 15.0889 335.621 14.3909 339.428C14.3889 339.438 14.3879 339.449 14.3859 339.459C14.2059 339.458 14.0259 339.531 13.9049 339.732C6.08294 352.666 1.24094 369.048 9.76394 382.919C10.1259 383.508 11.0189 383.253 11.0439 382.572C11.5639 368.3 13.1069 354.086 15.6679 340.037C16.2819 344.879 17.1599 349.694 17.4599 354.578C17.7759 359.724 17.2659 364.753 16.9469 369.838C11.3739 378.857 12.3399 389.695 14.2179 399.833C14.2029 399.853 14.1829 399.865 14.1699 399.888C10.2419 406.975 8.48791 414.062 10.0489 422.085C11.7809 430.984 13.8829 439.824 15.8159 448.681C15.9609 449.355 17.1259 449.404 17.2369 448.675ZM11.2699 38.3205C10.3049 33.8395 11.108 29.4725 12.061 25.0665C13.534 18.2555 14.9859 11.4405 16.4429 4.62652C18.4879 18.0595 17.7399 31.9265 15.0329 45.1935C14.8879 45.9055 14.7429 46.6235 14.6019 47.3455C13.3289 44.3925 11.9519 41.4895 11.2699 38.3205ZM25.6159 47.1615C24.6809 58.1495 21.959 68.7005 18.393 79.1555C18.367 78.7625 18.3419 78.3715 18.3169 77.9775C17.6229 66.9805 21.3099 57.0005 25.6159 47.1615ZM29.8379 88.4595C28.5319 93.3145 27.028 98.1085 25.311 102.842C23.548 107.702 21.8849 113.52 18.2739 117.462C19.0249 112.709 20.2889 108.08 22.1579 103.555C24.3159 98.3285 27.0249 93.3595 29.8379 88.4595ZM9.77595 69.0135C10.3599 81.7945 11.7329 94.5205 13.9249 107.126C7.49294 95.5385 3.33995 81.2685 9.77595 69.0135ZM6.03895 155.819C6.00895 150.293 6.67594 144.815 7.92094 139.45C8.73594 150.298 9.48394 161.152 10.3009 172C6.04794 168.246 6.06795 161.027 6.03895 155.819ZM13.4739 186.797C18.0599 177.325 23.224 168.616 30.501 161.02C29.057 166.081 27.0219 171.001 24.4979 175.609C21.8139 180.509 17.9639 183.733 13.4739 186.797ZM15.3419 153.382C15.5109 151.782 15.7319 150.187 16.0289 148.6C18.2389 136.798 23.8709 125.964 29.5709 115.484C28.6699 129.237 23.6459 142.369 15.3419 153.382ZM8.38895 121.083C7.02195 116.132 5.70293 110.84 5.32993 105.668C8.96393 110.552 11.204 116.244 13.04 122.03C13.942 124.872 14.9439 127.773 15.5239 130.701C15.7969 132.079 15.7259 133.417 15.5759 134.743C11.8309 130.992 9.78795 126.152 8.38895 121.083ZM5.39493 199.593C2.66493 195.214 1.28795 190.258 1.16395 185.148C3.79395 188.882 6.21493 192.745 8.46293 196.725C9.73693 198.98 10.9769 201.256 12.1509 203.565C13.2929 205.811 14.76 208.166 15.221 210.681C11.636 207.263 8.03493 203.827 5.39493 199.593ZM30.1309 262.373C26.4249 257.117 23.4369 251.386 21.3519 245.285C20.1699 241.826 19.3329 238.287 18.6909 234.692C18.6179 234.283 18.5449 233.876 18.4689 233.47C25.0949 241.64 28.0979 252.128 30.1309 262.373ZM21.3519 203.915C23.4289 197.814 26.4239 192.081 30.1309 186.826C28.0929 197.098 25.0789 207.615 18.4169 215.793C18.5199 215.369 18.6149 214.942 18.6919 214.507C19.3269 210.912 20.1739 207.375 21.3519 203.915ZM12.1509 245.636C10.9769 247.945 9.73692 250.22 8.46292 252.476C6.21392 256.456 3.79394 260.319 1.16394 264.053C1.28794 258.942 2.66493 253.989 5.39493 249.608C8.03393 245.374 11.636 241.938 15.221 238.52C14.76 241.035 13.2929 243.39 12.1509 245.636ZM6.03894 293.381C6.06694 288.176 6.04794 280.954 10.3019 277.201C9.48394 288.049 8.73694 298.903 7.92194 309.751C6.67594 304.385 6.00894 298.907 6.03894 293.381ZM29.5709 333.715C23.8709 323.235 18.2389 312.401 16.0289 300.599C15.7319 299.013 15.5109 297.418 15.3419 295.817C23.6459 306.831 28.6699 319.964 29.5709 333.715ZM24.4989 273.592C27.0229 278.199 29.0579 283.12 30.5019 288.181C23.2249 280.585 18.0609 271.876 13.4749 262.404C17.9609 265.466 21.8159 268.696 24.4989 273.592ZM5.32992 343.532C5.70292 338.359 7.02195 333.069 8.38895 328.117C9.79595 323.019 11.8509 318.154 15.6369 314.394C15.7619 315.465 15.8249 316.545 15.6579 317.648C15.1699 320.873 14.0229 324.067 13.0399 327.17C11.2069 332.957 8.96392 338.649 5.32992 343.532ZM25.3109 346.359C27.0279 351.091 28.5319 355.885 29.8379 360.74C27.0249 355.84 24.3179 350.871 22.1579 345.646C20.2879 341.121 19.0239 336.492 18.2739 331.738C21.8849 335.681 23.5479 341.499 25.3109 346.359ZM13.9259 342.074C11.7329 354.679 10.3609 367.405 9.77694 380.186C3.33994 367.931 7.49193 353.662 13.9259 342.074ZM18.3169 371.222C18.3419 370.829 18.3679 370.437 18.3929 370.045C21.9589 380.5 24.6809 391.05 25.6159 402.038C21.3099 392.199 17.6229 382.219 18.3169 371.222ZM11.2699 410.879C11.9539 407.71 13.3299 404.808 14.6009 401.855C14.7429 402.577 14.8869 403.294 15.0329 404.006C17.7429 417.271 18.4879 431.141 16.4429 444.573C14.9869 437.759 13.5349 430.944 12.0609 424.133C11.1059 419.725 10.3019 415.362 11.2699 410.879Z" fill="white"/>
</svg>
