<svg width="202" height="52" viewBox="0 0 202 52" fill="none" xmlns="http://www.w3.org/2000/svg">
<path d="M167.511 29.1451C172.765 29.6021 178.032 29.9371 183.307 29.8381C189.306 29.7261 195.912 29.2361 201.266 26.2761C201.942 25.9031 201.487 24.7921 200.737 25.0211C197.149 26.1191 193.493 25.3931 189.871 24.8861C186.329 24.3911 182.927 24.4581 179.408 25.1111C176.024 25.7391 172.694 26.6261 169.326 27.3361C171.069 26.6721 172.8 25.9811 174.507 25.2401C177.747 23.8341 180.914 22.2391 183.978 20.4821C187.085 18.7011 190.273 16.8641 193.024 14.5571C193.743 13.9541 192.826 12.8961 192.057 13.3041C189.841 14.4791 187.717 15.8281 185.551 17.0991C186.688 15.6961 187.608 14.1061 188.377 12.3691C189.148 10.6291 189.78 8.83412 190.349 7.01912C191.012 4.90412 191.716 2.70314 191.971 0.495137C192.029 -0.00586256 191.247 -0.188867 191.03 0.240133C187.89 6.44313 182.681 12.0041 181.858 19.1381C179.799 20.2391 177.724 21.3111 175.615 22.3111C171.247 24.3831 166.807 26.2791 162.266 27.9221C162.32 27.8841 162.374 27.8441 162.428 27.8061C163.921 26.7531 165.381 25.6521 166.852 24.5681C169.47 22.6381 172.239 20.8421 174.594 18.5861C176.819 16.4541 178.515 13.9891 179.675 11.1321C180.948 7.99813 181.704 4.67812 183.247 1.65212C183.575 1.00912 182.79 0.381117 182.247 0.880117C175.764 6.83412 170.503 13.9541 167.013 22.0541C166.904 22.3071 166.981 22.5451 167.131 22.7081C166.69 23.0331 166.248 23.3581 165.806 23.6801C164.329 24.7581 162.846 25.8271 161.393 26.9381C160.479 27.6371 159.51 28.3211 158.687 29.1381C158.129 29.2151 157.572 29.3081 157.014 29.3791C156.735 29.4141 156.565 29.6081 156.501 29.8261C150.247 31.7211 143.763 33.0591 137.216 33.8211C138.733 33.2611 140.215 32.5971 141.659 31.8391C141.848 31.8401 142.03 31.7551 142.147 31.5761C149.13 27.7901 155.218 21.9161 160.199 15.9141C162.922 12.6331 165.475 9.21812 168.003 5.78612C168.334 5.33712 167.781 4.63514 167.266 4.82714C155.547 9.17414 145.852 18.4961 141.469 30.2341C139.339 31.3841 137.102 32.3761 134.715 33.1391C132.606 33.8131 130.429 34.2681 128.229 34.5021C126.848 34.5501 125.47 34.5741 124.093 34.5701C125.687 34.1781 127.246 33.6191 128.725 32.8421C133.399 30.3861 136.964 26.3151 140.24 22.2751C140.566 21.8731 140.278 21.0441 139.663 21.2841C135.95 22.7381 132.481 24.6941 129.183 26.9241C126.365 28.8291 123.33 30.8151 121.584 33.8171C118.906 34.2741 116.146 34.2111 113.436 33.5561C113.269 33.5161 113.138 33.5701 113.044 33.6631C112.99 33.6271 112.94 33.5861 112.886 33.5491C112.653 33.3921 112.394 33.4851 112.229 33.6641C111.081 33.4681 109.941 33.2381 108.808 32.9711C114.355 32.4601 119.802 29.6811 124.175 26.4831C129.556 22.5471 134.173 17.3891 138.02 11.9681C138.318 11.5481 137.825 10.9821 137.366 11.1181C132.824 12.4561 128.233 13.3741 124.852 16.9971C123.069 18.9071 121.649 21.1831 120.124 23.2961C118.57 25.4491 117.007 27.5961 115.439 29.7391C115.376 29.7671 115.315 29.7991 115.252 29.8271C112.365 31.0891 109.346 31.7511 106.264 32.3011C104.855 31.8921 103.464 31.4231 102.094 30.8841C102.404 30.5101 101.925 29.8711 101.391 30.1101C101.196 30.1971 100.998 30.2701 100.802 30.3541C100.605 30.2691 100.403 30.1971 100.207 30.1101C99.671 29.8711 99.19 30.5171 99.511 30.8901C98.141 31.4291 96.751 31.8951 95.346 32.3041C92.26 31.7531 89.238 31.0891 86.347 29.8281C86.284 29.8001 86.223 29.7681 86.16 29.7401C84.636 27.6581 83.118 25.5731 81.608 23.4811C80.039 21.3071 78.58 18.9621 76.746 16.9971C73.365 13.3741 68.774 12.4561 64.232 11.1181C63.775 10.9841 63.28 11.5471 63.578 11.9681C67.425 17.3901 72.042 22.5481 77.423 26.4831C81.801 29.6851 87.256 32.4681 92.81 32.9731C91.673 33.2421 90.527 33.4731 89.375 33.6701C89.211 33.4861 88.95 33.3891 88.711 33.5501C88.657 33.5861 88.607 33.6271 88.553 33.6641C88.459 33.5721 88.328 33.5171 88.161 33.5571C85.451 34.2131 82.69 34.2751 80.013 33.8181C78.268 30.8151 75.232 28.8301 72.414 26.9251C69.115 24.6951 65.646 22.7391 61.934 21.2851C61.321 21.0451 61.031 21.8731 61.357 22.2761C64.638 26.3221 68.199 30.3751 72.872 32.8431C74.398 33.6491 76.012 34.2231 77.664 34.6141C76.298 34.6161 74.931 34.5891 73.566 34.5311C68.785 34.0531 64.289 32.4841 60.115 30.2011C55.726 18.4801 46.038 9.17212 34.331 4.82912C33.819 4.63912 33.261 5.33714 33.593 5.78814C40.755 15.5131 48.647 25.9191 59.471 31.6161C59.586 31.7671 59.752 31.8411 59.924 31.8431C61.342 32.5671 62.804 33.2191 64.328 33.7681C64.166 33.7491 64.002 33.7331 63.84 33.7131C57.461 32.9431 51.2 31.6081 45.081 29.7841C45.007 29.5851 44.841 29.4151 44.581 29.3821C44.104 29.3211 43.629 29.2401 43.152 29.1761C43.047 29.1431 42.942 29.1101 42.837 29.0771C42.029 28.2891 41.092 27.6211 40.202 26.9411C38.81 25.8771 37.389 24.8521 35.974 23.8181C35.47 23.4501 34.967 23.0811 34.464 22.7111C34.615 22.5481 34.692 22.3101 34.582 22.0571C31.091 13.9581 25.831 6.83814 19.348 0.883138C18.809 0.388138 18.017 1.00711 18.348 1.65511C19.861 4.62111 20.616 7.86914 21.844 10.9481C23.013 13.8781 24.723 16.4061 27.001 18.5891C29.303 20.7941 32.002 22.5501 34.559 24.4361C36.03 25.5201 37.488 26.6251 38.98 27.6781C39.066 27.7391 39.152 27.8011 39.238 27.8631C35.432 26.5121 31.681 24.9911 28.006 23.2731C25.213 21.9671 22.459 20.5861 19.737 19.1391C18.913 12.0061 13.704 6.44512 10.565 0.243123C10.348 -0.184877 9.56598 -0.00287184 9.62398 0.498128C9.87298 2.64513 10.55 4.78413 11.19 6.84313C11.773 8.71913 12.422 10.5751 13.219 12.3721C13.983 14.0961 14.893 15.6751 16.018 17.0711C13.866 15.8011 11.745 14.4761 9.53997 13.3071C8.77797 12.9031 7.84699 13.9521 8.57299 14.5601C11.017 16.6101 13.815 18.2611 16.56 19.8711C19.374 21.5211 22.267 23.0351 25.225 24.4101C27.519 25.4761 29.864 26.4321 32.231 27.3291C28.877 26.6211 25.56 25.7351 22.189 25.1131C18.668 24.4631 15.27 24.3931 11.726 24.8881C8.10397 25.3941 4.44798 26.1211 0.859977 25.0231C0.117977 24.7961 -0.351015 25.9001 0.330985 26.2781C5.68499 29.2381 12.291 29.7281 18.29 29.8401C23.567 29.9391 28.836 29.6041 34.092 29.1461C36.155 29.5021 38.224 29.8041 40.299 30.0591C41.229 30.3381 42.157 30.6261 43.093 30.8831C49.224 32.5701 55.493 33.9501 61.823 34.8481C58.588 34.8911 55.347 34.5391 52.106 34.1311C52.006 34.0861 51.894 34.0701 51.773 34.0891C48.114 33.6251 44.456 33.1141 40.807 33.0591C32.327 32.9311 23.85 34.3141 15.836 37.0811C15.146 37.3191 15.122 38.2781 15.836 38.5081C21.78 40.4181 28.27 41.0121 34.474 40.4501C40.345 39.9181 46.442 38.3641 51.633 35.4741C56.936 36.0651 62.241 36.5561 67.507 35.5141C72.084 35.9401 76.682 36.0931 81.271 35.8961C77.873 36.8521 74.537 38.0251 71.311 39.2311C67.607 40.6161 63.96 42.1511 60.348 43.7601C58.499 44.5831 56.659 45.4281 54.824 46.2841C53.076 47.0991 51.115 47.7951 49.712 49.1621C49.351 49.5131 49.579 50.0101 49.98 50.1781C56.698 52.9901 64.275 51.4621 70.55 48.2211C73.9 46.4911 76.95 44.2531 79.893 41.9111C82.53 39.8121 85.176 37.7241 87.816 35.6291C89.561 35.2751 91.311 34.9451 93.063 34.6211C89.935 37.3401 87.614 41.0101 86.445 44.9661C86.29 45.4921 86.874 45.8631 87.32 45.6391C92.488 43.0411 96.484 38.3111 98.179 32.7811C98.191 32.7431 98.186 32.7111 98.189 32.6761C99.068 32.3361 99.935 31.9621 100.79 31.5551C101.651 31.9671 102.522 32.3481 103.407 32.6941C103.411 32.7231 103.406 32.7491 103.416 32.7801C105.111 38.3101 109.106 43.0401 114.275 45.6381C114.72 45.8621 115.306 45.4901 115.151 44.9651C113.982 41.0091 111.661 37.3391 108.533 34.6191C110.283 34.9431 112.033 35.2721 113.777 35.6261C116.418 37.7221 119.065 39.8101 121.703 41.9101C124.646 44.2531 127.695 46.4901 131.046 48.2201C137.322 51.4611 144.898 52.9891 151.616 50.1771C152.017 50.0091 152.245 49.5131 151.884 49.1611C150.527 47.8391 148.658 47.1641 146.968 46.3751C145.068 45.4881 143.163 44.6121 141.248 43.7591C137.636 42.1501 133.989 40.6151 130.285 39.2301C127.168 38.0641 123.947 36.9321 120.668 35.9941C125.14 36.1621 129.64 35.9221 134.013 35.4941C134.022 35.4961 134.027 35.5021 134.036 35.5041C139.319 36.5601 144.641 36.0661 149.962 35.4731C155.155 38.3641 161.248 39.9121 167.121 40.4491C173.322 41.0151 179.817 40.4171 185.759 38.5071C186.472 38.2781 186.45 37.3191 185.759 37.0801C177.746 34.3131 169.268 32.9311 160.789 33.0581C157.14 33.1131 153.482 33.6241 149.823 34.0881C149.702 34.0701 149.59 34.0851 149.491 34.1301C146.152 34.5501 142.814 34.9151 139.482 34.8461C146.914 33.8461 154.31 32.2541 161.502 30.0341C163.512 29.7831 165.514 29.4901 167.511 29.1451ZM190.087 3.38811C189.824 4.37311 189.566 5.36113 189.261 6.33013C188.702 8.10713 188.093 9.87614 187.336 11.5811C186.239 14.0521 184.799 16.5941 182.878 18.5901C183.285 15.4841 184.623 12.6231 186.171 9.90413C187.41 7.72813 188.7 5.51211 190.087 3.38811ZM180.847 3.85613C180.086 5.75513 179.462 7.71011 178.722 9.62111C177.518 12.7321 175.83 15.3721 173.391 17.6591C171.809 19.1431 170.106 20.4851 168.371 21.7861C171.339 15.0791 175.539 8.91813 180.847 3.85613ZM165.549 6.87014C159.099 15.3131 152.167 23.8981 143.064 29.3291C147.337 19.3011 155.449 11.0141 165.549 6.87014ZM120.471 24.5461C122.032 22.3561 123.504 20.0231 125.299 18.0151C127.977 15.0211 132.079 13.3061 136.048 12.5101C132.158 17.0661 128.244 21.5401 123.389 25.1361C121.524 26.5171 119.548 27.7251 117.484 28.7701C118.479 27.3611 119.47 25.9501 120.471 24.5461ZM65.553 12.5111C69.523 13.3071 73.624 15.0221 76.302 18.0161C78.048 19.9681 79.48 22.2321 80.998 24.3621C82.043 25.8281 83.079 27.3011 84.117 28.7721C82.052 27.7271 80.077 26.5181 78.212 25.1371C73.357 21.5411 69.443 17.0671 65.553 12.5111ZM42.522 15.0831C40.279 12.4121 38.158 9.64312 36.048 6.86812C46.137 11.0061 54.243 19.2761 58.522 29.2871C52.414 25.6141 47.038 20.4611 42.522 15.0831ZM22.952 9.81014C22.176 7.83914 21.537 5.81712 20.752 3.85412C26.061 8.91612 30.261 15.0761 33.229 21.7841C31.496 20.4831 29.794 19.1421 28.21 17.6601C25.824 15.4261 24.146 12.8451 22.952 9.81014ZM12.397 6.51012C12.071 5.48412 11.798 4.43813 11.518 3.39513C12.904 5.51613 14.192 7.73013 15.43 9.90413C16.978 12.6231 18.315 15.4841 18.722 18.5901C16.802 16.5931 15.361 14.0521 14.264 11.5811C13.534 9.93414 12.942 8.22612 12.397 6.51012ZM34.082 39.2351C28.797 39.6811 23.621 39.1401 18.555 37.7661C26.036 35.4711 33.848 34.3721 41.681 34.5981C44.195 34.6701 46.715 34.9251 49.238 35.2051C44.392 37.3071 39.427 38.7841 34.082 39.2351ZM183.047 37.7661C177.98 39.1391 172.807 39.6771 167.52 39.2351C162.175 38.7881 157.209 37.3071 152.364 35.2041C154.887 34.9241 157.407 34.6691 159.921 34.5971C167.754 34.3721 175.566 35.4711 183.047 37.7661ZM190.775 26.3931C192.571 26.6371 194.377 26.8851 196.176 26.9271C191.823 28.2841 187.096 28.5931 182.607 28.6631C178.996 28.7191 175.393 28.5551 171.794 28.3101C174.319 27.7681 176.831 27.1721 179.363 26.6521C183.231 25.8581 186.878 25.8631 190.775 26.3931ZM130.051 27.5711C132.51 25.9651 135.063 24.5101 137.749 23.3341C135.075 26.3441 132.168 29.2071 128.682 31.2371C126.868 32.2931 124.931 33.0601 122.934 33.5401C124.575 30.9381 127.548 29.2061 130.051 27.5711ZM63.852 23.3341C66.538 24.5101 69.092 25.9641 71.551 27.5711C74.054 29.2071 77.027 30.9371 78.668 33.5401C76.671 33.0601 74.734 32.2931 72.92 31.2371C69.433 29.2081 66.526 26.3441 63.852 23.3341ZM18.994 28.6631C14.508 28.5931 9.78399 28.2841 5.43299 26.9301C7.15899 26.8891 8.89097 26.6571 10.614 26.4221C14.587 25.8811 18.291 25.8381 22.237 26.6511C24.765 27.1721 27.272 27.7691 29.793 28.3101C26.199 28.5551 22.601 28.7191 18.994 28.6631ZM80.077 40.3341C77.18 42.6111 74.2 44.8361 70.98 46.6421C65.134 49.9201 57.784 51.8511 51.312 49.4061C52.652 48.4221 54.355 47.8211 55.823 47.1321C57.524 46.3341 59.23 45.5451 60.945 44.7751C64.658 43.1071 68.41 41.5281 72.23 40.1191C75.872 38.7761 79.574 37.5851 83.337 36.6301C83.944 36.4761 84.555 36.3411 85.165 36.2021C83.46 37.5681 81.794 38.9851 80.077 40.3341ZM88.105 43.8381C89.705 39.6571 92.531 36.1151 96.164 33.4601C96.197 33.4361 96.216 33.4061 96.241 33.3781C96.497 33.2941 96.758 33.2241 97.013 33.1351C95.366 37.6151 92.2 41.4091 88.105 43.8381ZM113.496 43.8381C109.403 41.4101 106.237 37.6171 104.59 33.1381C104.855 33.2321 105.122 33.3201 105.389 33.4091C105.406 33.4261 105.416 33.4451 105.437 33.4611C109.07 36.1141 111.896 39.6571 113.496 43.8381ZM140.459 44.6861C142.24 45.4841 144.012 46.3021 145.779 47.1311C147.245 47.8191 148.95 48.4221 150.29 49.4051C143.822 51.8481 136.462 49.9241 130.622 46.6411C127.403 44.8321 124.424 42.6111 121.525 40.3331C119.807 38.9831 118.141 37.5661 116.435 36.2001C116.976 36.3241 117.518 36.4411 118.056 36.5771C121.892 37.5411 125.662 38.7511 129.372 40.1191C133.123 41.5031 136.81 43.0511 140.459 44.6861Z" fill="white"/>
</svg>
